<svg version="1.1" viewBox="0.0 0.0 512.0 512.0" fill="none" stroke="none" stroke-linecap="square" stroke-miterlimit="10" xmlns:xlink="http://www.w3.org/1999/xlink" xmlns="http://www.w3.org/2000/svg"><clipPath id="p.0"><path d="m0 0l512.0 0l0 512.0l-512.0 0l0 -512.0z" clip-rule="nonzero"/></clipPath><g clip-path="url(#p.0)"><path fill="#000000" fill-opacity="0.0" d="m0 0l512.0 0l0 512.0l-512.0 0z" fill-rule="evenodd"/><path fill="#000000" fill-opacity="0.0" d="m236.33858 110.055115l221.16536 0l0 471.87402l-221.16536 0z" fill-rule="evenodd"/><path fill="#4a86e8" d="m342.13547 477.4551l0 -235.70312l-88.04689 0l0 -31.53125l211.81252 0l0 31.53125l-88.40625 0l0 235.70312l-35.359375 0z" fill-rule="nonzero"/><path fill="#000000" fill-opacity="0.0" d="m44.356956 26.35433l382.74014 0l0 272.15747l-382.74014 0z" fill-rule="evenodd"/><path fill="#000000" d="m402.8101 49.64556l0 6.75q-9.671875 0 -15.6875 3.46875q-6.015625 3.453125 -11.484375 12.9375q-3.640625 6.375 -11.484375 30.4375l-68.90625 199.25l-7.28125 0l-56.32814 -158.04689l-55.96875 158.04689l-6.5625 0l-73.45312 -205.26562q-8.203125 -22.96875 -10.390625 -27.15625q-3.65625 -6.921875 -9.953125 -10.296875q-6.28125 -3.375 -17.03125 -3.375l0 -6.75l91.51562 0l0 6.75l-4.375 0q-9.671875 0 -14.78125 4.375q-5.0937424 4.375 -5.0937424 10.578125q0 6.375 8.015617 29.34375l48.671875 138.71875l41.015625 -117.93749l-7.28125 -20.78125l-5.84375 -16.59375q-3.828125 -9.109375 -8.5625 -16.03125q-2.375 -3.46875 -5.828125 -5.84375q-4.5625 -3.28125 -9.125 -4.734375q-3.453125 -1.09375 -10.9375 -1.09375l0 -6.75l96.250015 0l0 6.75l-6.5625 0q-10.20314 0 -14.95314 4.375q-4.734375 4.375 -4.734375 11.84375q0 9.296875 8.203125 32.453125l47.39064 134.34375l47.03125 -136.17188q8.03125 -22.59375 8.03125 -31.34375q0 -4.203125 -2.65625 -7.84375q-2.640625 -3.640625 -6.640625 -5.109375q-6.9375 -2.546875 -18.046875 -2.546875l0 -6.75l73.828125 0z" fill-rule="nonzero"/></g></svg>